<svg width="640" height="161" viewBox="0 0 640 161" fill="none" xmlns="http://www.w3.org/2000/svg">
<g clip-path="url(#clip0_3_13)">
<line x1="-19.627" y1="514.849" x2="89.0217" y2="-39.8444" stroke="#7B2FFF" stroke-width="40"/>
<line x1="19.373" y1="522.849" x2="128.022" y2="-31.8444" stroke="#E0245E" stroke-width="40"/>
<line x1="58.373" y1="530.849" x2="167.022" y2="-23.8444" stroke="#FF4500" stroke-width="40"/>
<line x1="97.373" y1="538.849" x2="206.022" y2="-15.8444" stroke="#FF8C00" stroke-width="40"/>
<path d="M172.702 84.1586L77.2061 126.361L84.2119 28.751L172.702 84.1586Z" fill="white"/>
<path d="M215.908 71.9606C215.667 69.5257 214.63 67.6341 212.799 66.2859C210.968 64.9376 208.483 64.2635 205.343 64.2635C203.21 64.2635 201.409 64.5653 199.94 65.169C198.471 65.7526 197.344 66.5676 196.56 67.614C195.795 68.6604 195.413 69.8477 195.413 71.1758C195.372 72.2826 195.604 73.2485 196.107 74.0735C196.63 74.8986 197.344 75.6129 198.25 76.2166C199.156 76.8002 200.202 77.3133 201.389 77.756C202.576 78.1786 203.844 78.5408 205.192 78.8427L210.746 80.1708C213.443 80.7745 215.918 81.5794 218.172 82.5856C220.426 83.5917 222.378 84.8293 224.028 86.2983C225.678 87.7673 226.956 89.4979 227.861 91.4901C228.787 93.4822 229.26 95.7662 229.28 98.342C229.26 102.125 228.294 105.405 226.382 108.182C224.491 110.939 221.754 113.082 218.172 114.612C214.61 116.121 210.314 116.875 205.283 116.875C200.292 116.875 195.946 116.111 192.243 114.581C188.561 113.052 185.683 110.788 183.61 107.79C181.558 104.771 180.481 101.038 180.381 96.5913H193.028C193.169 98.6639 193.763 100.395 194.809 101.783C195.875 103.151 197.294 104.188 199.065 104.892C200.856 105.576 202.878 105.918 205.132 105.918C207.346 105.918 209.267 105.596 210.897 104.952C212.547 104.308 213.825 103.413 214.731 102.266C215.636 101.119 216.089 99.8009 216.089 98.3118C216.089 96.9233 215.677 95.7562 214.852 94.8104C214.047 93.8646 212.859 93.0597 211.29 92.3956C209.74 91.7315 207.839 91.1278 205.585 90.5845L198.854 88.8942C193.642 87.6264 189.527 85.6443 186.508 82.9478C183.49 80.2513 181.991 76.6191 182.011 72.0511C181.991 68.3082 182.987 65.0382 184.999 62.2411C187.031 59.444 189.818 57.2607 193.36 55.691C196.902 54.1214 200.926 53.3366 205.434 53.3366C210.022 53.3366 214.027 54.1214 217.447 55.691C220.888 57.2607 223.565 59.444 225.477 62.2411C227.388 65.0382 228.374 68.2781 228.435 71.9606H215.908ZM262.491 69.6364V79.2955H234.57V69.6364H262.491ZM240.908 58.5284H253.767V101.753C253.767 102.94 253.948 103.866 254.31 104.53C254.673 105.174 255.176 105.627 255.82 105.888C256.484 106.15 257.248 106.281 258.114 106.281C258.717 106.281 259.321 106.23 259.925 106.13C260.528 106.009 260.991 105.918 261.313 105.858L263.336 115.426C262.692 115.628 261.786 115.859 260.619 116.121C259.452 116.402 258.033 116.574 256.363 116.634C253.264 116.755 250.547 116.342 248.213 115.396C245.899 114.451 244.098 112.982 242.81 110.989C241.522 108.997 240.888 106.482 240.908 103.443V58.5284ZM270.867 116V69.6364H283.333V77.7259H283.816C284.661 74.8482 286.08 72.675 288.072 71.206C290.064 69.7169 292.358 68.9723 294.954 68.9723C295.598 68.9723 296.292 69.0125 297.037 69.093C297.781 69.1735 298.435 69.2842 298.999 69.4251V80.8349C298.395 80.6538 297.56 80.4928 296.494 80.3519C295.427 80.2111 294.451 80.1406 293.566 80.1406C291.674 80.1406 289.984 80.5531 288.495 81.3782C287.026 82.1831 285.858 83.31 284.993 84.7589C284.148 86.2077 283.725 87.878 283.725 89.7695V116H270.867ZM324.618 116.906C319.849 116.906 315.744 115.94 312.303 114.008C308.882 112.056 306.246 109.299 304.394 105.737C302.543 102.155 301.617 97.9194 301.617 93.0295C301.617 88.2603 302.543 84.0747 304.394 80.4727C306.246 76.8706 308.852 74.0634 312.212 72.0511C315.593 70.0388 319.557 69.0327 324.105 69.0327C327.164 69.0327 330.011 69.5257 332.647 70.5117C335.303 71.4776 337.618 72.9366 339.59 74.8885C341.582 76.8404 343.131 79.2955 344.238 82.2535C345.345 85.1915 345.898 88.6326 345.898 92.5767V96.1083H306.749V88.1396H333.794C333.794 86.2882 333.392 84.6482 332.587 83.2195C331.782 81.7907 330.665 80.6739 329.236 79.869C327.828 79.0439 326.188 78.6314 324.316 78.6314C322.364 78.6314 320.634 79.0842 319.124 79.9897C317.635 80.8751 316.468 82.0724 315.623 83.5817C314.778 85.0708 314.345 86.7309 314.325 88.5621V96.1385C314.325 98.4325 314.748 100.415 315.593 102.085C316.458 103.755 317.676 105.043 319.245 105.949C320.815 106.854 322.676 107.307 324.829 107.307C326.258 107.307 327.566 107.106 328.753 106.703C329.941 106.301 330.957 105.697 331.802 104.892C332.647 104.087 333.291 103.101 333.734 101.934L345.627 102.719C345.023 105.576 343.785 108.071 341.914 110.205C340.063 112.317 337.668 113.968 334.73 115.155C331.812 116.322 328.441 116.906 324.618 116.906ZM367.51 116.875C364.552 116.875 361.916 116.362 359.602 115.336C357.288 114.29 355.457 112.75 354.108 110.718C352.78 108.665 352.116 106.109 352.116 103.051C352.116 100.475 352.589 98.3118 353.535 96.5611C354.481 94.8104 355.769 93.4018 357.399 92.3352C359.029 91.2687 360.88 90.4638 362.953 89.9205C365.045 89.3771 367.239 88.9948 369.533 88.7734C372.229 88.4917 374.403 88.2301 376.053 87.9886C377.703 87.727 378.9 87.3447 379.645 86.8416C380.389 86.3385 380.762 85.594 380.762 84.608V84.4268C380.762 82.5152 380.158 81.0361 378.95 79.9897C377.763 78.9433 376.073 78.4201 373.879 78.4201C371.565 78.4201 369.724 78.9332 368.356 79.9595C366.987 80.9657 366.082 82.2334 365.639 83.7628L353.746 82.7969C354.35 79.9796 355.537 77.5447 357.308 75.4922C359.079 73.4195 361.363 71.8298 364.16 70.723C366.977 69.5961 370.237 69.0327 373.94 69.0327C376.516 69.0327 378.981 69.3345 381.335 69.9382C383.71 70.5419 385.812 71.4776 387.644 72.7454C389.495 74.0131 390.954 75.6431 392.02 77.6353C393.087 79.6074 393.62 81.9718 393.62 84.7287V116H381.426V109.571H381.063C380.319 111.02 379.323 112.297 378.075 113.404C376.827 114.491 375.328 115.346 373.578 115.97C371.827 116.574 369.805 116.875 367.51 116.875ZM371.193 108.001C373.085 108.001 374.755 107.629 376.204 106.884C377.653 106.12 378.789 105.093 379.615 103.805C380.44 102.518 380.852 101.059 380.852 99.4286V94.5085C380.45 94.7701 379.896 95.0116 379.192 95.233C378.508 95.4342 377.733 95.6254 376.868 95.8065C376.002 95.9674 375.137 96.1184 374.272 96.2592C373.407 96.38 372.622 96.4906 371.917 96.5913C370.408 96.8126 369.09 97.1648 367.963 97.6477C366.836 98.1307 365.961 98.7847 365.337 99.6097C364.713 100.415 364.401 101.421 364.401 102.628C364.401 104.379 365.035 105.717 366.303 106.643C367.591 107.548 369.221 108.001 371.193 108.001ZM403.596 116V69.6364H415.851V77.8164H416.395C417.36 75.0998 418.97 72.9567 421.224 71.3871C423.478 69.8175 426.174 69.0327 429.314 69.0327C432.493 69.0327 435.2 69.8275 437.433 71.4173C439.667 72.9869 441.156 75.1199 441.901 77.8164H442.384C443.329 75.1602 445.04 73.0372 447.515 71.4474C450.01 69.8376 452.958 69.0327 456.359 69.0327C460.685 69.0327 464.197 70.4111 466.893 73.168C469.61 75.9047 470.968 79.7885 470.968 84.8192V116H458.14V87.3548C458.14 84.779 457.456 82.8472 456.087 81.5593C454.719 80.2714 453.009 79.6275 450.956 79.6275C448.622 79.6275 446.801 80.372 445.493 81.8611C444.185 83.3301 443.531 85.272 443.531 87.6868V116H431.064V87.0831C431.064 84.8092 430.41 82.9981 429.102 81.6499C427.814 80.3016 426.114 79.6275 424.001 79.6275C422.572 79.6275 421.284 79.9897 420.137 80.7141C419.011 81.4184 418.115 82.4145 417.451 83.7024C416.787 84.9702 416.455 86.4593 416.455 88.1697V116H403.596ZM481.126 116V69.6364H493.984V116H481.126ZM487.585 63.6598C485.673 63.6598 484.033 63.0259 482.665 61.7582C481.317 60.4703 480.643 58.9309 480.643 57.1399C480.643 55.3691 481.317 53.8498 482.665 52.582C484.033 51.2942 485.673 50.6502 487.585 50.6502C489.497 50.6502 491.127 51.2942 492.475 52.582C493.843 53.8498 494.528 55.3691 494.528 57.1399C494.528 58.9309 493.843 60.4703 492.475 61.7582C491.127 63.0259 489.497 63.6598 487.585 63.6598ZM517.143 89.196V116H504.285V69.6364H516.54V77.8164H517.083C518.109 75.1199 519.83 72.9869 522.245 71.4173C524.659 69.8275 527.587 69.0327 531.028 69.0327C534.248 69.0327 537.055 69.737 539.45 71.1456C541.844 72.5542 543.706 74.5665 545.034 77.1825C546.362 79.7784 547.026 82.8774 547.026 86.4794V116H534.168V88.7734C534.188 85.9361 533.463 83.7225 531.994 82.1328C530.525 80.523 528.503 79.718 525.927 79.718C524.197 79.718 522.667 80.0903 521.339 80.8349C520.031 81.5794 519.005 82.6661 518.26 84.0948C517.536 85.5034 517.164 87.2038 517.143 89.196ZM578.109 116.906C573.42 116.906 569.365 115.909 565.944 113.917C562.544 111.905 559.918 109.108 558.066 105.526C556.215 101.924 555.289 97.7483 555.289 92.9993C555.289 88.21 556.215 84.0244 558.066 80.4425C559.918 76.8404 562.544 74.0433 565.944 72.0511C569.365 70.0388 573.42 69.0327 578.109 69.0327C582.798 69.0327 586.842 70.0388 590.243 72.0511C593.664 74.0433 596.3 76.8404 598.151 80.4425C600.003 84.0244 600.928 88.21 600.928 92.9993C600.928 97.7483 600.003 101.924 598.151 105.526C596.3 109.108 593.664 111.905 590.243 113.917C586.842 115.909 582.798 116.906 578.109 116.906ZM578.169 106.945C580.302 106.945 582.083 106.341 583.512 105.134C584.941 103.906 586.017 102.236 586.742 100.123C587.486 98.0099 587.858 95.6052 587.858 92.9087C587.858 90.2122 587.486 87.8075 586.742 85.6946C586.017 83.5817 584.941 81.9115 583.512 80.6839C582.083 79.4564 580.302 78.8427 578.169 78.8427C576.016 78.8427 574.205 79.4564 572.736 80.6839C571.287 81.9115 570.19 83.5817 569.446 85.6946C568.721 87.8075 568.359 90.2122 568.359 92.9087C568.359 95.6052 568.721 98.0099 569.446 100.123C570.19 102.236 571.287 103.906 572.736 105.134C574.205 106.341 576.016 106.945 578.169 106.945Z" fill="white"/>
</g>
<defs>
<clipPath id="clip0_3_13">
<rect width="640" height="161" fill="white"/>
</clipPath>
</defs>
</svg>
